<svg width="451" height="450" viewBox="0 0 451 450" fill="none" xmlns="http://www.w3.org/2000/svg">
<mask id="mask0_300_4597" style="mask-type:alpha" maskUnits="userSpaceOnUse" x="0" y="0" width="451" height="450">
<rect x="0.5" width="450" height="450" fill="#D9D9D9"/>
</mask>
<g mask="url(#mask0_300_4597)">
<path d="M360.091 110.383V102.5L450.5 102.994V406.455" stroke="#0A1F37" stroke-miterlimit="10"/>
<path d="M0.5 196.096H19.7085V186.774H38.8808V196.096H128.491V213.129H134.49V237.541H140.087V231.538H169.676V238.576H182.473V149.181H188.704V133.824H196.862V121.504H225.652V136.007H232.053V149.181H238.397V197.131H268.037V147.405L316.818 148.694V50.0174L345.603 50.1176V109.966H359.682" stroke="#0A1F37" stroke-miterlimit="10"/>
<path d="M102.791 220.77V248.272H104.917C117.755 248.272 128.166 258.683 128.166 271.521C128.166 297.137 107.398 317.898 81.775 317.891C56.1725 317.885 35.4243 297.123 35.4243 271.521V220.77C35.4243 202.168 50.5023 187.084 69.1108 187.084C87.7126 187.084 102.797 202.162 102.797 220.77H102.791Z" fill="#FF7047"/>
<path d="M74.152 236.036V398.905" stroke="#0A1F37" stroke-width="0.612928" stroke-miterlimit="10"/>
<path d="M108.835 275.626L74.152 295.92" stroke="#0A1F37" stroke-width="0.612928" stroke-miterlimit="10"/>
<path d="M55.2762 244.688L74.1522 257.995" stroke="#0A1F37" stroke-width="0.612928" stroke-miterlimit="10"/>
<path d="M362.373 253.307L357.104 242.154" stroke="#2F3A47" stroke-width="0.400446" stroke-miterlimit="10"/>
<path d="M191.019 289.822L187.743 288.511L187.415 287.528H189.709L191.019 289.822Z" fill="#0A1F37"/>
<path d="M262.338 278.956L310.641 291.4" stroke="white" stroke-width="0.400446" stroke-miterlimit="10"/>
<path d="M296.599 183.286C299.24 183.654 302.022 182.029 303.005 179.549C303.259 178.907 303.399 178.191 303.259 177.516C302.958 176.078 301.239 175.149 299.849 175.617C299.24 175.824 298.692 176.279 298.478 176.881C298.264 177.482 298.424 178.238 298.939 178.626C299.454 179.014 300.29 178.927 300.644 178.392" stroke="white" stroke-width="0.155275" stroke-miterlimit="10"/>
<path d="M375.611 124.906H257.401C249.569 124.906 243.219 131.255 243.219 139.088V139.093C243.219 146.925 249.569 153.275 257.401 153.275H375.611C383.444 153.275 389.793 146.925 389.793 139.093V139.088C389.793 131.255 383.444 124.906 375.611 124.906Z" fill="white" stroke="#0A1F37" stroke-width="0.459695" stroke-miterlimit="10"/>
<path d="M277.642 136.91C277.561 136.66 277.351 136.484 277.09 136.444L271.624 135.652L269.177 130.697C269.061 130.461 268.826 130.316 268.565 130.316C268.304 130.316 268.068 130.461 267.953 130.697L265.506 135.652L260.04 136.444C259.779 136.484 259.568 136.66 259.488 136.91C259.408 137.161 259.473 137.427 259.663 137.613L263.62 141.469L262.687 146.915C262.642 147.176 262.748 147.432 262.958 147.582C263.169 147.738 263.445 147.758 263.68 147.632L268.57 145.06L273.459 147.632C273.56 147.687 273.67 147.712 273.78 147.712C273.921 147.712 274.061 147.667 274.181 147.582C274.392 147.427 274.497 147.171 274.452 146.915L273.52 141.469L277.476 137.613C277.662 137.427 277.732 137.161 277.652 136.91H277.642Z" fill="#FF4713"/>
<path d="M301.699 136.91C301.619 136.66 301.408 136.484 301.147 136.444L295.681 135.652L293.234 130.697C293.119 130.461 292.883 130.316 292.622 130.316C292.361 130.316 292.126 130.461 292.01 130.697L289.563 135.652L284.097 136.444C283.836 136.484 283.625 136.66 283.545 136.91C283.465 137.161 283.53 137.427 283.721 137.613L287.677 141.469L286.745 146.915C286.7 147.176 286.805 147.432 287.015 147.582C287.226 147.738 287.502 147.758 287.738 147.632L292.627 145.06L297.517 147.632C297.617 147.687 297.727 147.712 297.838 147.712C297.978 147.712 298.118 147.667 298.239 147.582C298.449 147.427 298.555 147.171 298.51 146.915L297.577 141.469L301.534 137.613C301.719 137.427 301.789 137.161 301.709 136.91H301.699Z" fill="#FF4713"/>
<path d="M325.759 136.91C325.679 136.66 325.469 136.484 325.208 136.444L319.742 135.652L317.294 130.697C317.179 130.461 316.943 130.316 316.683 130.316C316.422 130.316 316.186 130.461 316.071 130.697L313.623 135.652L308.157 136.444C307.897 136.484 307.686 136.66 307.606 136.91C307.525 137.161 307.591 137.427 307.781 137.613L311.738 141.469L310.805 146.915C310.76 147.176 310.865 147.432 311.076 147.582C311.287 147.738 311.562 147.758 311.798 147.632L316.688 145.06L321.577 147.632C321.677 147.687 321.788 147.712 321.898 147.712C322.038 147.712 322.179 147.667 322.299 147.582C322.51 147.427 322.615 147.171 322.57 146.915L321.637 141.469L325.594 137.613C325.779 137.427 325.85 137.161 325.769 136.91H325.759Z" fill="#FF4713"/>
<path d="M349.815 136.91C349.735 136.66 349.524 136.484 349.263 136.444L343.797 135.652L341.35 130.697C341.235 130.461 340.999 130.316 340.738 130.316C340.477 130.316 340.242 130.461 340.126 130.697L337.679 135.652L332.213 136.444C331.952 136.484 331.742 136.66 331.661 136.91C331.581 137.161 331.646 137.427 331.837 137.613L335.794 141.469L334.861 146.915C334.816 147.176 334.921 147.432 335.132 147.582C335.342 147.738 335.618 147.758 335.854 147.632L340.743 145.06L345.633 147.632C345.733 147.687 345.843 147.712 345.954 147.712C346.094 147.712 346.235 147.667 346.355 147.582C346.565 147.427 346.671 147.171 346.626 146.915L345.693 141.469L349.65 137.613C349.835 137.427 349.905 137.161 349.825 136.91H349.815Z" fill="#FF4713"/>
<path d="M373.877 136.91C373.797 136.66 373.586 136.484 373.326 136.444L367.859 135.652L365.412 130.697C365.297 130.461 365.061 130.316 364.8 130.316C364.54 130.316 364.304 130.461 364.189 130.697L361.741 135.652L356.275 136.444C356.014 136.484 355.804 136.66 355.723 136.91C355.643 137.161 355.708 137.427 355.899 137.613L359.856 141.469L358.923 146.915C358.878 147.176 358.983 147.432 359.194 147.582C359.404 147.738 359.68 147.758 359.916 147.632L364.805 145.06L369.695 147.632C369.795 147.687 369.905 147.712 370.016 147.712C370.156 147.712 370.297 147.667 370.417 147.582C370.628 147.427 370.733 147.171 370.688 146.915L369.755 141.469L373.712 137.613C373.897 137.427 373.968 137.161 373.887 136.91H373.877Z" fill="#FF4713"/>
<path d="M28.1374 48.3002H135.635C142.631 48.3002 148.303 53.9715 148.303 60.9674V168.465C148.303 175.461 142.631 181.132 135.635 181.132H28.1375C21.1416 181.132 15.4703 175.461 15.4703 168.465V60.9674C15.4703 53.9715 21.1416 48.3002 28.1374 48.3002Z" fill="#D4E8F4" stroke="#0A1F37" stroke-width="0.817237"/>
<path d="M28.1374 48.3002H135.635C142.631 48.3002 148.303 53.9715 148.303 60.9674V168.465C148.303 175.461 142.631 181.132 135.635 181.132H28.1375C21.1416 181.132 15.4703 175.461 15.4703 168.465V60.9674C15.4703 53.9715 21.1416 48.3002 28.1374 48.3002Z" fill="white" stroke="#0A1F37" stroke-width="0.817237"/>
<path d="M135.635 47.8916H28.1374C20.9159 47.8916 15.0616 53.7458 15.0616 60.9674V168.465C15.0616 175.687 20.9159 181.541 28.1375 181.541H135.635C142.857 181.541 148.711 175.687 148.711 168.465V60.9674C148.711 53.7458 142.857 47.8916 135.635 47.8916Z" fill="white" stroke="#0A1F37" stroke-width="0.465825" stroke-miterlimit="10"/>
<path d="M57.1466 181.54H68.6153C71.158 181.54 73.6454 180.799 75.7732 179.407L98.9972 164.216C102.595 161.862 105.691 158.733 108.017 155.122C108.071 155.042 108.124 154.962 108.171 154.875C108.318 154.647 108.459 154.413 108.592 154.179C108.82 153.798 109.034 153.417 109.241 153.022C109.549 152.441 109.843 151.852 110.117 151.257C110.318 150.823 110.505 150.381 110.679 149.933C111.822 147.065 112.537 144.016 112.778 140.94C113.467 132.1 119.324 124.525 127.709 121.636L145.877 115.378C147.573 114.793 148.711 113.197 148.711 111.403C148.711 108.516 145.868 106.488 143.138 107.428L124.974 113.686C113.42 117.664 105.343 128.109 104.4 140.291C104.186 143.08 103.43 145.781 102.227 148.255C102.013 148.696 101.779 149.138 101.538 149.566C101.197 150.161 100.829 150.749 100.435 151.311C100.007 151.919 99.5523 152.514 99.0642 153.076C98.9973 153.149 98.9304 153.23 98.8702 153.303C97.573 154.781 96.0686 156.085 94.4037 157.175L57.1712 181.533C57.1639 181.538 57.1553 181.54 57.1466 181.54Z" fill="white" stroke="#0A1F37" stroke-width="0.465825" stroke-miterlimit="10"/>
<path d="M67.8116 157.299L40.292 111.858C39.7305 110.931 38.5237 110.635 37.5966 111.196C36.6695 111.758 36.3731 112.965 36.9346 113.892L64.4543 159.332C65.0158 160.259 66.2225 160.556 67.1496 159.994C68.0767 159.433 68.3731 158.226 67.8116 157.299Z" fill="white" stroke="#0A1F37" stroke-width="0.465825" stroke-miterlimit="10"/>
<path d="M114.786 105.961C108.901 108.158 102.284 105.859 99.0298 100.485L87.3356 81.1767C86.7743 80.2499 85.5678 79.9535 84.641 80.5148C83.714 81.0762 83.4176 82.2826 83.979 83.2096L98.6975 107.514C100.651 110.739 101.117 114.652 99.9748 118.246L93.2162 139.52C92.4271 142.004 90.803 144.138 88.6195 145.561L87.1483 146.517L85.5102 147.587L83.8653 148.657L82.8088 149.346L77.5399 152.776L74.2502 154.915L68.5799 158.606L65.2902 160.746L38.8727 177.938C37.2376 179.002 37.9911 181.541 39.9419 181.541C40.3215 181.541 40.6929 181.431 41.0111 181.224L87.4025 151.037L87.7034 150.843L90.0704 149.299L92.4174 147.774L94.1358 146.658C94.8969 146.16 95.4629 145.415 95.7381 144.549L103.643 119.654C104.859 115.824 107.769 112.765 111.534 111.36L147.436 97.9611C148.202 97.6749 148.711 96.9426 148.711 96.1241C148.711 94.7564 147.346 93.8089 146.064 94.2872L114.786 105.961Z" fill="white" stroke="#0A1F37" stroke-width="0.465825" stroke-miterlimit="10"/>
<path d="M15.9934 61.3514C15.4142 61.7089 15.0616 62.3409 15.0616 63.0215C15.0616 64.5584 16.748 65.499 18.0556 64.6916L39.3833 51.523C41.0653 50.4844 40.3293 47.8916 38.3525 47.8916C37.9885 47.8916 37.6316 47.9929 37.3219 48.1841L15.9934 61.3514Z" fill="white" stroke="#0A1F37" stroke-width="0.465825" stroke-miterlimit="10"/>
<path d="M17.9273 47.8916C16.3446 47.8916 15.0616 49.1746 15.0616 50.7572C15.0616 53.0012 17.524 54.3745 19.4331 53.1953C21.8894 51.6782 20.8143 47.8916 17.9273 47.8916Z" fill="white" stroke="#0A1F37" stroke-width="0.465825" stroke-miterlimit="10"/>
<path d="M108.077 70.2312C103.503 70.2312 99.2615 67.8409 96.8922 63.928L87.7555 48.8387C87.3995 48.2508 86.7622 47.8916 86.0749 47.8916H83.8326C83.2888 47.8916 82.9535 48.4855 83.2344 48.9511C83.4322 49.2791 83.3291 49.7052 83.0032 49.9064L29.8255 82.7416L29.5245 82.9221L27.0439 84.4533L25.6932 85.2891L24.2355 86.1918L15.9922 91.2808C15.4138 91.6379 15.0616 92.2691 15.0616 92.9489C15.0616 94.4836 16.7455 95.4231 18.0515 94.6171L28.3343 88.2713L29.6315 87.4689L31.1761 86.5194L33.4629 85.1019L33.9243 84.8211L76.3835 58.6053C81.4742 55.4621 88.1511 57.0712 91.2512 62.1883C94.3144 67.2446 92.7286 73.825 87.6983 76.9308L56.4443 96.2282L55.0869 97.064L53.8367 97.8397L51.2556 99.431L50.8543 99.6784L15.9921 121.203C15.4137 121.56 15.0616 122.191 15.0616 122.871C15.0616 124.405 16.7455 125.345 18.0515 124.539L36.4785 113.165L39.815 111.106L45.5721 107.555L48.9086 105.489L54.2578 102.193L54.6725 101.932L56.3774 100.882L58.009 99.8724L59.0254 99.2438L84.2602 83.671L87.5967 81.6049L96.5161 76.103C98.5796 74.8302 100.956 74.1561 103.381 74.1561H146.749C147.833 74.1561 148.711 73.2775 148.711 72.1936C148.711 71.1098 147.833 70.2312 146.749 70.2312H108.077Z" fill="white" stroke="#0A1F37" stroke-width="0.465825" stroke-miterlimit="10"/>
<path d="M45.6571 145.844L45.6572 145.844C46.8569 149.054 47.4633 152.449 47.4633 155.858C47.4633 157.163 47.3711 158.475 47.193 159.781L46.5781 164.24C46.5781 164.24 46.5781 164.24 46.5781 164.24C46.4072 165.46 45.7177 166.546 44.6857 167.224C44.6856 167.224 44.6856 167.224 44.6856 167.224L24.8886 180.148C23.8986 180.795 22.7419 181.139 21.5597 181.139C18.1965 181.139 15.47 178.412 15.47 175.049V135.545L25.3193 129.46L25.3202 129.459C26.4477 128.758 27.8448 128.63 29.0835 129.106L29.0839 129.106C32.9203 130.576 36.3417 132.837 39.1701 135.692C41.9981 138.546 44.2198 141.994 45.6571 145.844ZM15.47 135.31H15.0722L15.4121 135.1C15.4485 135.16 15.47 135.232 15.47 135.31Z" fill="#FF4713" stroke="#0A1F37" stroke-width="0.817237"/>
<path d="M114.005 64.0053C111.538 63.1554 110.078 61.7541 109.395 60.1671C108.71 58.5741 108.784 56.7368 109.498 54.975C110.928 51.445 114.898 48.3002 120.137 48.3002H139.531C144.376 48.3002 148.303 52.2274 148.303 57.0718C148.303 61.5256 144.975 65.2784 140.558 65.5692C133.775 66.0155 124.872 66.1666 117.274 64.8538C116.168 64.6624 115.077 64.3744 114.005 64.0053Z" fill="#FF4713" stroke="#0A1F37" stroke-width="0.817237"/>
<path d="M95.9276 83.2077L95.9276 83.2077L95.9286 83.2071L101.284 80.031L101.284 80.0311L101.289 80.0286C101.372 79.978 101.477 79.9481 101.595 79.9478C101.62 79.9477 101.645 79.9454 101.669 79.9411H141.249C141.585 79.9411 141.856 80.2128 141.856 80.5488V89.2747C141.856 89.529 141.698 89.757 141.452 89.8462C141.451 89.8463 141.451 89.8464 141.451 89.8465L107.359 102.028C107.359 102.028 107.359 102.028 107.359 102.029C107.083 102.125 106.784 102.02 106.632 101.777C106.632 101.777 106.632 101.777 106.632 101.776L95.7211 84.0467C95.721 84.0466 95.7209 84.0464 95.7209 84.0463C95.5445 83.7571 95.6389 83.3778 95.9276 83.2077Z" fill="#EDEDED" stroke="#0A1F37" stroke-width="0.817237"/>
<path d="M94.7982 117C94.7982 116.999 94.7974 116.999 94.7972 117L90.238 131.366C89.5493 133.525 86.6406 133.873 85.4637 131.934L68.6942 104.165C67.524 102.226 68.1191 99.7119 70.0314 98.5017L78.2758 93.2795C80.2483 92.0292 82.8628 92.651 84.0597 94.6503L94.143 111.407C95.1587 113.091 95.393 115.129 94.7992 117C94.7991 117.001 94.7982 117 94.7982 117Z" fill="white" stroke="#0A1F37" stroke-width="0.465825" stroke-miterlimit="10"/>
<path d="M67.415 69.5582L83.7356 59.6429C83.9657 59.5032 84.2655 59.5764 84.4052 59.8064L90.2621 69.4468C90.4018 69.6768 90.3286 69.9767 90.0986 70.1164L73.778 80.0317C73.5479 80.1715 73.2481 80.0983 73.1083 79.8683L67.2514 70.2278C67.1117 69.9978 67.1849 69.698 67.415 69.5582Z" fill="#EDEDED" stroke="#0A1F37" stroke-width="0.817237"/>
<path d="M49.1349 81.1575L53.5185 78.4946C53.5519 78.4846 53.5851 78.4701 53.6171 78.4507L53.4066 78.1035L53.6171 78.4506L62.5143 73.0536C62.5143 73.0536 62.5143 73.0536 62.5143 73.0536C62.7309 72.9222 63.0072 72.9904 63.1365 73.2037L63.1366 73.2038L69.0274 82.9058C69.1587 83.1223 69.0905 83.3986 68.8772 83.528L68.877 83.5281L65.1329 85.8014C64.9163 85.9327 64.64 85.8646 64.5107 85.6514C64.5106 85.6514 64.5106 85.6513 64.5106 85.6513L63.0797 83.2911L63.0796 83.291C62.7142 82.6885 61.9341 82.5026 61.335 82.866L61.3349 82.8661L58.3928 84.6513C57.7903 85.0168 57.6045 85.797 57.9679 86.3961L57.9682 86.3966L59.392 88.7364C59.3921 88.7364 59.3921 88.7365 59.3922 88.7366C59.5234 88.9532 59.4552 89.2293 59.242 89.3586L59.2419 89.3587L55.4975 91.632C55.2809 91.7634 55.0048 91.6952 54.8755 91.4819L54.8754 91.4818L48.9846 81.7798C48.9846 81.7798 48.9846 81.7798 48.9846 81.7798C48.8532 81.5632 48.9214 81.2869 49.1346 81.1576L49.1349 81.1575Z" fill="#EDEDED" stroke="#0A1F37" stroke-width="0.817237"/>
<path d="M65.8147 48.5873L51.0082 57.5827C50.5853 57.8396 50.4508 58.3907 50.7078 58.8136L53.0234 62.6252C53.2804 63.0481 53.8314 63.1827 54.2543 62.9258L69.0608 53.9304C69.4837 53.6734 69.6182 53.1224 69.3612 52.6995L67.0455 48.8879C66.7886 48.4649 66.2376 48.3303 65.8147 48.5873Z" fill="white" stroke="#0A1F37" stroke-width="0.465825" stroke-miterlimit="10"/>
<path d="M46.271 51.2879C46.2731 51.2879 46.275 51.289 46.2761 51.2908L48.5879 55.0992C48.8419 55.5204 49.397 55.6609 49.8182 55.4001L52.6236 53.6959C55.3257 52.0544 54.1622 47.8979 51.0005 47.8979C50.4283 47.8979 49.8672 48.0549 49.3781 48.3518L46.5685 50.0576C46.1482 50.3111 46.0142 50.8641 46.2659 51.285C46.267 51.2868 46.2689 51.2879 46.271 51.2879Z" fill="white" stroke="#0A1F37" stroke-width="0.465825" stroke-miterlimit="10"/>
<path d="M23.5629 66.7535L41.9408 55.5883C42.1708 55.4485 42.4707 55.5217 42.6104 55.7517L48.4673 65.3922C48.607 65.6222 48.5338 65.922 48.3037 66.0618L29.9258 77.227C29.6958 77.3667 29.396 77.2935 29.2563 77.0635L23.3994 67.423C23.2596 67.193 23.3328 66.8932 23.5629 66.7535Z" fill="#EDEDED" stroke="#0A1F37" stroke-width="0.817237"/>
<path d="M15.0609 100.991L15.0605 100.991L15.0609 100.991ZM15.0609 100.991L15.061 100.991L15.0609 100.991ZM15.4705 100.991C15.4705 100.961 15.4674 100.932 15.4616 100.904C15.4719 100.947 15.4753 100.992 15.4705 101.037V100.991ZM15.4705 101.222L28.6392 93.2217C28.6394 93.2216 28.6395 93.2215 28.6397 93.2214C28.8702 93.0827 29.1727 93.1584 29.3086 93.3837L29.3094 93.3849L35.1659 103.019C35.1661 103.019 35.1662 103.019 35.1664 103.02C35.3048 103.25 35.2291 103.552 35.0039 103.688L35.0028 103.689L15.5639 115.497C15.545 115.477 15.5209 115.442 15.5014 115.39C15.4817 115.339 15.4705 115.281 15.4705 115.223V101.222Z" fill="#EDEDED" stroke="#0A1F37" stroke-width="0.817237"/>
<path d="M17.9706 76.5339C16.6639 75.8114 15.0614 76.7565 15.0614 78.2496C15.0614 78.9627 15.4486 79.6196 16.0725 79.9649L25.6929 85.2894L29.6313 87.4692L51.2554 99.4313L53.1254 100.463C53.7582 100.813 54.2907 101.318 54.6722 101.932L83.8654 148.657C84.5095 149.694 85.5544 150.417 86.7514 150.655L87.7034 150.844L99.057 153.084L108.171 154.876L146.37 162.411C147.582 162.65 148.711 161.722 148.711 160.486C148.711 159.55 148.048 158.743 147.129 158.562L110.117 151.258L101.531 149.567L92.4174 147.775L87.5845 146.821C87.4048 146.785 87.2487 146.675 87.1551 146.518L58.0088 99.8726L57.959 99.7926C57.2506 98.6525 56.2617 97.7132 55.0867 97.0643L33.4626 85.1022L29.5243 82.9224L17.9706 76.5339Z" fill="white" stroke="#0A1F37" stroke-width="0.465825" stroke-miterlimit="10"/>
<path d="M130.595 181.133C129.174 181.133 128.104 179.838 128.371 178.442C129.86 170.707 137.335 165.643 145.063 167.132C146.944 167.495 148.303 169.141 148.303 171.056V173.806C148.303 177.852 145.022 181.133 140.976 181.133H130.595Z" fill="#EDEDED" stroke="#0A1F37" stroke-width="0.817237"/>
<path d="M124.614 173.398L124.613 173.4C123.75 177.888 119.822 181.132 115.251 181.132H108.258L110.271 170.645L110.271 170.645L110.271 170.643C110.343 170.257 110.717 170.004 111.101 170.08L111.103 170.08L124.048 172.568L124.05 172.568C124.436 172.64 124.69 173.013 124.614 173.398Z" fill="#EDEDED" stroke="#0A1F37" stroke-width="0.817237"/>
<path d="M111.654 165.477L112.39 161.649C112.465 161.261 112.839 161.008 113.227 161.082L126.018 163.541C126.406 163.615 126.659 163.99 126.585 164.377L125.849 168.206C125.775 168.593 125.4 168.847 125.012 168.773L112.221 166.314C111.834 166.24 111.58 165.865 111.654 165.477Z" fill="#EDEDED" stroke="#0A1F37" stroke-width="0.817237"/>
<path d="M138.491 151.074C138.49 151.076 138.49 151.078 138.492 151.078L144.713 152.275C146.787 152.673 148.711 151.084 148.711 148.972V146.107C148.711 143.36 146.762 141 144.065 140.481L140.654 139.824C140.046 139.704 139.457 140.105 139.343 140.713L137.605 149.76C137.485 150.367 137.884 150.954 138.49 151.07C138.492 151.07 138.492 151.073 138.491 151.074Z" fill="white" stroke="#0A1F37" stroke-width="0.465825" stroke-miterlimit="10"/>
<path d="M132.971 135.107C132.971 135.108 132.972 135.11 132.974 135.11L141.901 136.825C145.434 137.503 148.711 134.796 148.711 131.198C148.711 128.45 146.761 126.09 144.062 125.572L135.131 123.857C134.522 123.736 133.934 124.137 133.82 124.746L132.082 133.793C131.962 134.4 132.361 134.987 132.968 135.103C132.97 135.103 132.971 135.105 132.971 135.107Z" fill="white" stroke="#0A1F37" stroke-width="0.465825" stroke-miterlimit="10"/>
<path d="M118.707 146.823L131.229 149.23C131.838 149.347 132.427 148.948 132.544 148.339L133.469 143.525C133.586 142.916 133.187 142.327 132.578 142.21L120.056 139.803C119.447 139.686 118.858 140.085 118.741 140.695L117.816 145.508C117.699 146.117 118.098 146.706 118.707 146.823Z" fill="white" stroke="#0A1F37" stroke-width="0.465825" stroke-miterlimit="10"/>
<path d="M52.1998 119.852L57.6464 116.557C57.9842 116.353 58.4237 116.461 58.628 116.798L68.5674 133.23C68.7716 133.567 68.6634 134.007 68.3256 134.211L62.8791 137.506C62.5413 137.71 62.102 137.602 61.8976 137.264L51.9583 120.833C51.7539 120.495 51.8621 120.056 52.1998 119.852Z" fill="#EDEDED" stroke="#0A1F37" stroke-width="0.817237"/>
<path d="M64.1609 141.75L68.3533 148.677C69.5837 150.71 72.2314 151.365 74.2708 150.135C76.3035 148.905 76.9589 146.257 75.7286 144.218L71.5361 137.29C71.2018 136.742 70.4862 136.561 69.9313 136.896L64.5555 140.145C64.0072 140.48 63.8266 141.195 64.1609 141.75Z" fill="white" stroke="#0A1F37" stroke-width="0.465825" stroke-miterlimit="10"/>
<path d="M46.2276 111.916L48.7506 116.086C49.0717 116.617 49.7624 116.787 50.2932 116.466L55.7398 113.172C56.2706 112.851 56.4406 112.16 56.1195 111.629L53.5965 107.458C53.2754 106.927 52.5848 106.757 52.054 107.079L46.6074 110.373C46.0766 110.694 45.9065 111.385 46.2276 111.916Z" fill="white" stroke="#0A1F37" stroke-width="0.465825" stroke-miterlimit="10"/>
<path d="M105.456 169.841L105.456 169.843L103.62 179.397C103.426 180.405 102.545 181.133 101.519 181.133C100.176 181.133 99.1653 179.909 99.419 178.59L101.257 169.034L101.257 169.034L101.257 169.032C101.329 168.651 101.699 168.397 102.09 168.469L104.89 169.011L104.89 169.011L104.893 169.011C105.279 169.083 105.532 169.456 105.456 169.841Z" fill="#EDEDED" stroke="#0A1F37" stroke-width="0.817237"/>
<path d="M135.636 47.8918H28.1381C20.9165 47.8918 15.0623 53.7461 15.0623 60.9676V168.466C15.0623 175.687 20.9165 181.541 28.1381 181.541H135.636C142.858 181.541 148.712 175.687 148.712 168.466V60.9676C148.712 53.7461 142.857 47.8918 135.636 47.8918Z" stroke="#0A1F37" stroke-width="0.465825" stroke-miterlimit="10"/>
<path d="M62.1754 44H23.6047C16.3832 44 10.5289 49.8542 10.5289 57.0758V99.5981" stroke="#0A1F37" stroke-width="0.465825" stroke-miterlimit="10"/>
<path d="M153.005 63.0899V158.339" stroke="#0A1F37" stroke-width="0.465825" stroke-miterlimit="10"/>
<path d="M41.1604 184.831L127.363 185.499" stroke="#0A1F37" stroke-width="0.465825" stroke-miterlimit="10"/>
<path d="M10.5289 108.973V130.523" stroke="#0A1F37" stroke-width="0.465825" stroke-miterlimit="10"/>
<path opacity="0.39" d="M142.186 79.4982C142.186 88.645 134.771 96.0599 125.624 96.0599C116.478 96.0599 109.063 88.645 109.063 79.4982C109.063 70.3515 116.478 62.9365 125.624 62.9365C134.771 62.9365 142.186 70.3515 142.186 79.4982Z" fill="#EA0029" stroke="#0A1F37" stroke-width="0.817237"/>
<path opacity="0.39" d="M70.7271 75.6599C70.7271 84.8067 63.3122 92.2216 54.1655 92.2216C45.0187 92.2216 37.6037 84.8067 37.6037 75.6599C37.6037 66.5132 45.0187 59.0983 54.1655 59.0983C63.3122 59.0983 70.7271 66.5132 70.7271 75.6599Z" fill="#EA0029" stroke="#0A1F37" stroke-width="0.817237"/>
<path opacity="0.39" d="M52.9147 130.188C52.9147 139.335 45.4997 146.75 36.3529 146.75C27.2062 146.75 19.7913 139.335 19.7913 130.188C19.7913 121.041 27.2062 113.627 36.3529 113.627C45.4997 113.627 52.9147 121.041 52.9147 130.188Z" fill="#EA0029" stroke="#0A1F37" stroke-width="0.817237"/>
<path opacity="0.39" d="M92.9061 162.871C92.9061 172.018 85.4913 179.433 76.3445 179.433C67.1977 179.433 59.7829 172.018 59.7829 162.871C59.7829 153.725 67.1977 146.31 76.3445 146.31C85.4913 146.31 92.9061 153.725 92.9061 162.871Z" fill="#EA0029" stroke="#0A1F37" stroke-width="0.817237"/>
<path d="M76.4642 152.669L76.4643 152.67C76.4733 152.687 76.4832 152.703 76.4937 152.718C76.9778 153.608 77.7382 154.325 78.683 154.718L78.6839 154.718C81.7933 156.002 83.9877 159.059 83.9877 162.632C83.9877 167.687 79.6098 171.72 74.4385 171.145L74.4381 171.145C70.5039 170.712 67.3239 167.513 66.9029 163.578C66.4816 159.594 68.7849 156.097 72.1806 154.712C73.1522 154.316 73.9076 153.553 74.3863 152.654L74.3867 152.653L75.3352 150.86C75.3723 150.79 75.4727 150.79 75.5097 150.86L76.4642 152.669Z" fill="#EA0029" stroke="#0A1F37" stroke-width="0.817237"/>
<mask id="mask1_300_4597" style="mask-type:luminance" maskUnits="userSpaceOnUse" x="66" y="150" width="19" height="22">
<path d="M76.4633 152.67L76.4634 152.67C76.4725 152.687 76.4823 152.703 76.4929 152.718C76.977 153.608 77.7373 154.326 78.6822 154.718L78.683 154.718C81.7925 156.002 83.9868 159.059 83.9868 162.632C83.9868 167.687 79.6089 171.72 74.4376 171.146L74.4372 171.146C70.503 170.712 67.3231 167.513 66.902 163.578C66.4808 159.594 68.784 156.097 72.1798 154.712C73.1513 154.316 73.9068 153.553 74.3854 152.654L74.3859 152.653L75.3343 150.86C75.3714 150.79 75.4719 150.79 75.5089 150.861L76.4633 152.67Z" fill="white" stroke="white" stroke-width="0.817237"/>
</mask>
<g mask="url(#mask1_300_4597)">
<path d="M75.6565 162.96C77.2222 162.96 78.4915 161.69 78.4915 160.125C78.4915 158.559 77.2222 157.289 75.6565 157.289C74.0907 157.289 72.8214 158.559 72.8214 160.125C72.8214 161.69 74.0907 162.96 75.6565 162.96Z" stroke="#0A1F37" stroke-width="0.784548" stroke-miterlimit="10"/>
<path d="M75.4226 164.256C77.9969 164.256 80.083 166.343 80.083 168.917V168.917C80.083 170.904 78.4724 172.514 76.4857 172.514H74.3526C72.3658 172.514 70.7552 170.904 70.7552 168.917V168.917C70.7552 166.343 72.8416 164.256 75.4159 164.256H75.4226Z" stroke="#0A1F37" stroke-width="0.784548" stroke-miterlimit="10"/>
</g>
<path d="M36.1527 121.727L36.1522 121.728C35.6736 122.627 34.9182 123.39 33.9466 123.787C30.5509 125.172 28.2476 128.669 28.6689 132.653C29.0899 136.588 32.2698 139.786 36.2041 140.22L36.2045 140.22C41.3758 140.794 45.7537 136.761 45.7537 131.706C45.7537 128.134 43.5594 125.076 40.45 123.793L40.4491 123.792C39.5044 123.4 38.744 122.682 38.2599 121.793L36.1527 121.727ZM36.1527 121.727L37.1011 119.935C37.1382 119.865 37.2387 119.865 37.2757 119.935L38.2302 121.744L36.1527 121.727Z" fill="#EA0029" stroke="#0A1F37" stroke-width="0.817237"/>
<mask id="mask2_300_4597" style="mask-type:luminance" maskUnits="userSpaceOnUse" x="28" y="119" width="19" height="22">
<path d="M36.1538 121.728L36.1533 121.729C35.6747 122.629 34.9193 123.392 33.9477 123.788C30.552 125.173 28.2487 128.67 28.67 132.654C29.091 136.589 32.2709 139.787 36.2052 140.221L36.2056 140.221C41.3769 140.796 45.7548 136.762 45.7548 131.707C45.7548 128.135 43.5605 125.077 40.4511 123.794L40.4502 123.794C39.5055 123.401 38.7451 122.683 38.261 121.794L36.1538 121.728ZM36.1538 121.728L37.1022 119.936C37.1393 119.866 37.2398 119.866 37.2768 119.936L38.2313 121.745L36.1538 121.728Z" fill="white" stroke="white" stroke-width="0.817237"/>
</mask>
<g mask="url(#mask2_300_4597)">
<path d="M37.4244 132.033C38.9902 132.033 40.2595 130.764 40.2595 129.198C40.2595 127.633 38.9902 126.363 37.4244 126.363C35.8587 126.363 34.5894 127.633 34.5894 129.198C34.5894 130.764 35.8587 132.033 37.4244 132.033Z" stroke="#0A1F37" stroke-width="0.784548" stroke-miterlimit="10"/>
<path d="M37.1967 133.331C39.771 133.331 41.8572 135.417 41.8572 137.991V137.991C41.8572 139.978 40.2467 141.588 38.2599 141.588H36.1269C34.1401 141.588 32.5295 139.978 32.5295 137.991V137.991C32.5295 135.417 34.6157 133.331 37.19 133.331H37.1967Z" stroke="#0A1F37" stroke-width="0.784548" stroke-miterlimit="10"/>
</g>
<path d="M54.0855 66.8577L54.086 66.8568L55.0344 65.0643C55.0715 64.9942 55.172 64.9943 55.2091 65.0644L56.1636 66.8734C56.1636 66.8734 56.1636 66.8734 56.1636 66.8735C56.1728 66.8908 56.1827 66.907 56.1933 66.9222C56.6774 67.8119 57.4377 68.5295 58.3825 68.9219L58.3833 68.9223C61.4927 70.2056 63.6869 73.2633 63.6869 76.8358C63.6869 81.8907 59.309 85.9241 54.1377 85.3495L54.1374 85.3494C50.2031 84.9158 47.0233 81.7174 46.6022 77.7822C46.181 73.7983 48.4841 70.3014 51.8799 68.9162C52.8514 68.5201 53.6069 67.7569 54.0855 66.8577Z" fill="#EA0029" stroke="#0A1F37" stroke-width="0.817237"/>
<mask id="mask3_300_4597" style="mask-type:luminance" maskUnits="userSpaceOnUse" x="46" y="64" width="19" height="22">
<path d="M54.0845 66.8577L54.085 66.8568L55.0334 65.0643C55.0706 64.9942 55.1711 64.9943 55.2081 65.0644L56.1626 66.8734C56.1626 66.8734 56.1626 66.8734 56.1626 66.8735C56.1718 66.8908 56.1817 66.907 56.1923 66.9222C56.6764 67.8119 57.4367 68.5295 58.3815 68.9219L58.3823 68.9223C61.4918 70.2056 63.686 73.2633 63.686 76.8358C63.686 81.8907 59.3081 85.9241 54.1367 85.3495L54.1364 85.3494C50.2022 84.9158 47.0223 81.7174 46.6012 77.7822C46.18 73.7983 48.4831 70.3014 51.8789 68.9162C52.8505 68.5201 53.6059 67.7569 54.0845 66.8577Z" fill="white" stroke="white" stroke-width="0.817237"/>
</mask>
<g mask="url(#mask3_300_4597)">
<path d="M55.3558 77.1636C56.9216 77.1636 58.1909 75.8943 58.1909 74.3286C58.1909 72.7628 56.9216 71.4935 55.3558 71.4935C53.79 71.4935 52.5208 72.7628 52.5208 74.3286C52.5208 75.8943 53.79 77.1636 55.3558 77.1636Z" stroke="#0A1F37" stroke-width="0.784548" stroke-miterlimit="10"/>
<path d="M55.1216 78.4605C57.6959 78.4605 59.7821 80.5467 59.7821 83.121V83.121C59.7821 85.1078 58.1715 86.7184 56.1848 86.7184H54.0518C52.0651 86.7184 50.4545 85.1078 50.4545 83.121V83.121C50.4545 80.5467 52.5406 78.4605 55.1149 78.4605H55.1216Z" stroke="#0A1F37" stroke-width="0.784548" stroke-miterlimit="10"/>
</g>
<path opacity="0.39" d="M124.319 124.779C124.319 133.926 116.904 141.341 107.758 141.341C98.6109 141.341 91.1961 133.926 91.1961 124.779C91.1961 115.632 98.6109 108.217 107.758 108.217C116.904 108.217 124.319 115.632 124.319 124.779Z" fill="#EA0029" stroke="#0A1F37" stroke-width="0.817237"/>
<path d="M106.722 116.713L106.722 116.713L107.671 114.92C107.708 114.85 107.808 114.85 107.845 114.92L108.8 116.729C108.8 116.729 108.8 116.729 108.8 116.729C108.809 116.747 108.819 116.763 108.829 116.778C109.314 117.668 110.074 118.385 111.019 118.778L111.02 118.778C114.129 120.061 116.323 123.119 116.323 126.692C116.323 131.746 111.945 135.78 106.774 135.205L106.774 135.205C102.839 134.772 99.6594 131.573 99.2383 127.638C98.8171 123.654 101.12 120.157 104.516 118.772C105.488 118.376 106.243 117.613 106.722 116.713Z" fill="#EA0029" stroke="#0A1F37" stroke-width="0.817237"/>
<mask id="mask4_300_4597" style="mask-type:luminance" maskUnits="userSpaceOnUse" x="98" y="114" width="19" height="22">
<path d="M106.722 116.713L106.722 116.713L107.671 114.92C107.708 114.85 107.808 114.85 107.845 114.92L108.8 116.729C108.8 116.729 108.8 116.729 108.8 116.729C108.809 116.747 108.819 116.763 108.829 116.778C109.314 117.668 110.074 118.385 111.019 118.778L111.02 118.778C114.129 120.061 116.323 123.119 116.323 126.692C116.323 131.746 111.945 135.78 106.774 135.205L106.774 135.205C102.839 134.772 99.6594 131.573 99.2383 127.638C98.8171 123.654 101.12 120.157 104.516 118.772C105.488 118.376 106.243 117.613 106.722 116.713Z" fill="white" stroke="white" stroke-width="0.817237"/>
</mask>
<g mask="url(#mask4_300_4597)">
<path d="M107.985 127.019C109.551 127.019 110.82 125.75 110.82 124.184C110.82 122.619 109.551 121.349 107.985 121.349C106.419 121.349 105.15 122.619 105.15 124.184C105.15 125.75 106.419 127.019 107.985 127.019Z" stroke="#0A1F37" stroke-width="0.784548" stroke-miterlimit="10"/>
<path d="M107.757 128.317C110.332 128.317 112.418 130.403 112.418 132.977V132.977C112.418 134.964 110.807 136.575 108.82 136.575H106.687C104.701 136.575 103.09 134.964 103.09 132.977V132.977C103.09 130.403 105.176 128.317 107.751 128.317H107.757Z" stroke="#0A1F37" stroke-width="0.784548" stroke-miterlimit="10"/>
</g>
<path d="M128.01 71.489L128.01 71.4892C128.019 71.5064 128.029 71.5226 128.04 71.5376C128.524 72.4273 129.284 73.145 130.229 73.5375L130.23 73.5378C133.339 74.8212 135.533 77.8788 135.533 81.4514C135.533 86.5062 131.156 90.5396 125.984 89.965L125.984 89.965C122.05 89.5314 118.87 86.3329 118.449 82.3977C118.028 78.4138 120.331 74.9169 123.726 73.5318C124.698 73.1357 125.454 72.3725 125.932 71.4732L125.933 71.4723L126.881 69.6799C126.918 69.6098 127.019 69.6098 127.056 69.68L128.01 71.489Z" fill="#EA0029" stroke="#0A1F37" stroke-width="0.817237"/>
<mask id="mask5_300_4597" style="mask-type:luminance" maskUnits="userSpaceOnUse" x="117" y="69" width="19" height="22">
<path d="M128.011 71.4894L128.011 71.4896C128.02 71.5068 128.03 71.5229 128.04 71.538C128.524 72.4277 129.285 73.1454 130.23 73.5379L130.23 73.5382C133.34 74.8216 135.534 77.8792 135.534 81.4518C135.534 86.5066 131.156 90.54 125.985 89.9654L125.984 89.9654C122.05 89.5318 118.87 86.3333 118.449 82.3981C118.028 78.4142 120.331 74.9173 123.727 73.5322C124.698 73.1361 125.454 72.3729 125.933 71.4736L125.933 71.4727L126.882 69.6803C126.919 69.6102 127.019 69.6102 127.056 69.6804L128.011 71.4894Z" fill="white" stroke="white" stroke-width="0.817237"/>
</mask>
<g mask="url(#mask5_300_4597)">
<path d="M127.203 81.779C128.769 81.779 130.038 80.5097 130.038 78.9439C130.038 77.3782 128.769 76.1089 127.203 76.1089C125.637 76.1089 124.368 77.3782 124.368 78.9439C124.368 80.5097 125.637 81.779 127.203 81.779Z" stroke="#0A1F37" stroke-width="0.784548" stroke-miterlimit="10"/>
<path d="M126.969 83.0766C129.543 83.0766 131.629 85.1628 131.629 87.737V87.737C131.629 89.7238 130.019 91.3344 128.032 91.3344H125.899C123.912 91.3344 122.302 89.7238 122.302 87.737V87.737C122.302 85.1628 124.388 83.0766 126.962 83.0766H126.969Z" stroke="#0A1F37" stroke-width="0.784548" stroke-miterlimit="10"/>
</g>
<path d="M123.151 406.307H195.427C176.343 400.988 167.282 385.844 159.403 379.168C153.746 374.377 147.223 375.375 143.401 378.552C136.38 384.392 143.636 391.677 143.636 391.677C143.636 391.677 138.962 391.78 134.641 390.048C130.283 388.302 126.372 386.424 123.76 388.889C118.984 393.401 128.111 397.451 119.549 396.182C111.471 394.986 107.15 406.307 123.144 406.307H123.151Z" fill="#FF4713"/>
<path d="M137.73 373.107C139.87 373.107 141.604 371.373 141.604 369.233C141.604 367.094 139.87 365.359 137.73 365.359C135.591 365.359 133.857 367.094 133.857 369.233C133.857 371.373 135.591 373.107 137.73 373.107Z" fill="#FF4713"/>
<path d="M114.083 371.317C118.07 371.317 121.303 368.085 121.303 364.098C121.303 360.111 118.07 356.878 114.083 356.878C110.096 356.878 106.864 360.111 106.864 364.098C106.864 368.085 110.096 371.317 114.083 371.317Z" fill="#FF4713"/>
<path d="M397.389 403.893C417.232 403.893 433.318 387.808 433.318 367.965C433.318 348.122 417.232 332.036 397.389 332.036C377.546 332.036 361.461 348.122 361.461 367.965C361.461 387.808 377.546 403.893 397.389 403.893Z" fill="white"/>
<path d="M371.248 367.869C371.248 361.449 373.581 355.565 377.448 351.038C382.209 345.455 389.297 341.911 397.213 341.911" stroke="#0A1F37" stroke-width="0.439396" stroke-miterlimit="10"/>
<path d="M420.743 356.909C422.298 360.24 423.164 363.96 423.164 367.878C423.164 377.276 418.167 385.508 410.684 390.064C406.751 392.456 402.136 393.835 397.199 393.835" stroke="#0A1F37" stroke-width="0.439396" stroke-miterlimit="10"/>
<path d="M393.075 403.893C373.229 403.893 357.146 387.804 357.146 367.965C357.146 348.126 373.236 332.036 393.075 332.036" stroke="#0A1F37" stroke-width="8.77895" stroke-miterlimit="10"/>
<path d="M397.389 403.893C417.232 403.893 433.318 387.808 433.318 367.965C433.318 348.122 417.232 332.036 397.389 332.036C377.546 332.036 361.461 348.122 361.461 367.965C361.461 387.808 377.546 403.893 397.389 403.893Z" stroke="#FF4713" stroke-width="8.77895" stroke-miterlimit="10"/>
<path d="M211.795 404.069C231.638 404.069 247.724 387.983 247.724 368.141C247.724 348.298 231.638 332.212 211.795 332.212C191.953 332.212 175.867 348.298 175.867 368.141C175.867 387.983 191.953 404.069 211.795 404.069Z" fill="white"/>
<path d="M185.118 367.87C185.118 361.45 187.451 355.566 191.318 351.039C196.08 345.456 203.167 341.912 211.084 341.912" stroke="#0A1F37" stroke-width="0.439396" stroke-miterlimit="10"/>
<path d="M234.62 356.908C236.176 360.239 237.041 363.959 237.041 367.877C237.041 377.275 232.045 385.507 224.561 390.063C220.629 392.455 216.014 393.835 211.076 393.835" stroke="#0A1F37" stroke-width="0.439396" stroke-miterlimit="10"/>
<path d="M206.946 332.029C187.099 332.029 171.017 348.119 171.017 367.958C171.017 387.804 187.107 403.886 206.946 403.886" stroke="#0A1F37" stroke-width="8.77895" stroke-miterlimit="10"/>
<path d="M211.26 403.894C231.102 403.894 247.188 387.808 247.188 367.966C247.188 348.123 231.102 332.037 211.26 332.037C191.417 332.037 175.331 348.123 175.331 367.966C175.331 387.808 191.417 403.894 211.26 403.894Z" stroke="#FF4713" stroke-width="8.77895" stroke-miterlimit="10"/>
<path d="M396.759 376.761C400.876 376.761 404.213 373.423 404.213 369.307C404.213 365.19 400.876 361.852 396.759 361.852C392.642 361.852 389.305 365.19 389.305 369.307C389.305 373.423 392.642 376.761 396.759 376.761Z" fill="#0A1F37"/>
<path d="M381.578 263.76H377.624L374.388 250.825H383.735L381.578 263.76Z" fill="url(#paint0_linear_300_4597)" stroke="#0A1F37" stroke-width="0.439396" stroke-miterlimit="10"/>
<path d="M393.265 368.904L354.989 339.278L361.556 331.875L396.002 366.05C397.132 365.779 398.372 366.05 399.304 366.872C400.822 368.222 400.962 370.54 399.612 372.059C398.262 373.578 395.943 373.717 394.425 372.367C393.412 371.472 393.016 370.137 393.265 368.897V368.904Z" fill="white" stroke="#0A1F37" stroke-width="0.448363" stroke-miterlimit="10"/>
<path d="M185.49 285.111L183.603 286.2L201.56 317.303L203.447 316.213L185.49 285.111Z" fill="white" stroke="#0A1F37" stroke-width="0.448363" stroke-miterlimit="10"/>
<path d="M378.702 312.806L390.558 310.113L416.897 320.671L422.539 330.591L394.028 322.571L363.793 334.01L368.364 317.604L378.702 312.806Z" fill="white" stroke="#0A1F37" stroke-width="0.448363" stroke-miterlimit="10"/>
<path d="M210.453 376.761C214.57 376.761 217.907 373.423 217.907 369.307C217.907 365.19 214.57 361.852 210.453 361.852C206.336 361.852 202.999 365.19 202.999 369.307C202.999 373.423 206.336 376.761 210.453 376.761Z" fill="#0A1F37"/>
<path d="M222.038 311.368L210.181 308.676L183.842 319.241L178.2 329.153L206.711 321.134L224.554 327.715L232.383 316.174L222.038 311.368Z" fill="white" stroke="#0A1F37" stroke-width="0.448363" stroke-miterlimit="10"/>
<path d="M390.558 310.114L362.891 259.086L349.596 262.681L363.61 310.114L335.304 343.167H245.039V358.977L339.765 361.135H339.772L349.42 361.318L390.558 310.114Z" fill="white" stroke="#0A1F37" stroke-width="0.448363" stroke-miterlimit="10"/>
<path d="M213.946 368.904L252.222 339.278L245.656 331.875L211.209 366.05C210.08 365.779 208.84 366.05 207.908 366.872C206.389 368.222 206.25 370.54 207.6 372.059C208.95 373.578 211.268 373.717 212.787 372.367C213.799 371.472 214.196 370.137 213.946 368.897V368.904Z" fill="white" stroke="#0A1F37" stroke-width="0.448363" stroke-miterlimit="10"/>
<path d="M245.039 358.977L216.286 324.487L218.655 315.55L200.717 303.518L195.522 283.217L283.484 290.708L287.798 309.754L279.588 322.858L285.281 343.166" fill="white"/>
<path d="M245.039 358.977L216.286 324.487L218.655 315.55L200.717 303.518L195.522 283.217L283.484 290.708L287.798 309.754L279.588 322.858L285.281 343.166" stroke="#0A1F37" stroke-width="0.448363" stroke-miterlimit="10"/>
<path d="M235.332 286.753H165.984L163.468 283.165H238.208L235.332 286.753Z" fill="white" stroke="#0A1F37" stroke-width="0.448363" stroke-miterlimit="10"/>
<path d="M232.581 224.5H167.987V283.165H232.581V224.5Z" fill="#FF791F" stroke="#0A1F37" stroke-width="0.466298" stroke-miterlimit="10"/>
<path d="M167.987 249.159L232.581 245.057V243.517H167.987V249.159Z" fill="#0A1F37"/>
<path d="M232.918 223.693H164.906V243.517H232.918V223.693Z" fill="#EA0029" stroke="#0A1F37" stroke-width="0.466298" stroke-miterlimit="10"/>
<path d="M183.358 223.693H176.182V283.158H183.358V223.693Z" fill="#FF4713"/>
<path d="M224.717 223.693H217.541V283.158H224.717V223.693Z" fill="#FF4713"/>
<path d="M378.702 264.478H349.597L345.29 249.386H378.702V264.478Z" fill="white" stroke="#0A1F37" stroke-width="0.448363" stroke-miterlimit="10"/>
<path d="M366.669 265.733L352.655 272.923L349.955 264.478H365.766L366.669 265.733Z" fill="#0A1F37"/>
<path d="M357.506 267.377L375.107 311.662L341.695 351.266H264.797L252.222 328.434" stroke="#0A1F37" stroke-width="0.439396" stroke-miterlimit="10"/>
<path d="M378.122 328.588L397.925 313.166L390.558 310.113L374.894 329.607L378.122 328.588Z" fill="#0A1F37"/>
<path d="M216.286 324.486L279.589 322.857L224.225 334.009L216.286 324.486Z" fill="#0A1F37"/>
<path d="M208.92 308.961L217.908 318.558L218.656 315.55L208.92 308.961Z" fill="#0A1F37"/>
<path d="M287.798 309.754L200.717 303.518" stroke="#0A1F37" stroke-width="0.439396" stroke-miterlimit="10"/>
<path d="M376.104 249.386L370.323 237.149" stroke="#2F3A47" stroke-width="0.439396" stroke-miterlimit="10"/>
<path d="M364.328 230.164V244.097C368.173 244.097 371.291 240.979 371.291 237.134C371.291 233.29 368.173 230.172 364.328 230.172V230.164Z" fill="white" stroke="#0A1F37" stroke-width="0.448363" stroke-miterlimit="10"/>
<path d="M188.083 289.453L184.488 288.015L184.129 286.936H186.645L188.083 289.453Z" fill="#0A1F37"/>
<path d="M236.235 285.858L164.37 284.42L163.468 283.165H238.208L236.235 285.858Z" fill="#0A1F37"/>
<path d="M350.008 261.493C353.756 261.493 356.794 258.455 356.794 254.707C356.794 250.958 353.756 247.92 350.008 247.92C346.26 247.92 343.221 250.958 343.221 254.707C343.221 258.455 346.26 261.493 350.008 261.493Z" fill="#FFABA6"/>
<path d="M349.435 261.427C352.774 261.5 355.569 261.493 358.907 261.544C359.663 261.559 360.235 261.566 360.543 261.581C360.712 261.581 360.8 261.588 360.8 261.588C360.8 261.588 361.439 260.664 360.705 260.048C360.059 259.505 358.995 259.512 358.467 258.808C357.851 257.971 357.807 256.35 357.667 255.352C357.653 255.249 357.638 255.139 357.667 255.037C357.711 254.89 357.844 254.78 357.976 254.692C358.775 254.171 359.854 254.068 360.69 254.523C362.194 255.352 361.563 257.076 362.326 258.309C362.693 258.896 363.544 258.925 364.197 258.72C364.469 258.639 364.755 258.507 364.887 258.25C364.982 258.052 364.968 257.817 364.953 257.604C364.953 255.902 364.674 254.156 364.535 252.454C364.447 251.412 364.19 249.358 363.17 248.786C362.928 248.646 362.642 248.602 362.363 248.558C360.206 248.221 358.034 247.993 355.855 247.883C354.74 247.824 349.377 247.67 349.201 248.309C348.9 249.387 349.318 261.427 349.421 261.427H349.435Z" fill="#FFABA6"/>
<path d="M282.178 294.141L250.145 288.719C244.731 287.802 241.649 282.013 243.909 277.002L251.928 259.283L294.02 269.151L296.654 276.386L282.185 294.141H282.178Z" fill="#0A1F37"/>
<path d="M266.338 277.53C268.092 271.206 274.644 267.508 280.968 269.262L331.453 283.29C337.777 285.043 341.475 291.595 339.722 297.92C337.968 304.244 331.416 307.942 325.092 306.188L274.607 292.16C268.283 290.407 264.585 283.855 266.338 277.53Z" fill="#0A1F37"/>
<path d="M266.339 277.53L319.34 291.184" stroke="white" stroke-width="0.439396" stroke-miterlimit="10"/>
<path d="M336.896 302.41L292.691 348.551L275.56 332.088L319.757 285.946" fill="#0A1F37"/>
<path d="M287.241 354.576L269.442 338.765L277.989 329.139L292.648 348.493L287.241 354.576Z" fill="#FF4713"/>
<path d="M289.523 368.507L263.529 345.418L273.382 334.332L291.181 350.143L287.894 359.036L289.523 368.507Z" fill="url(#paint1_linear_300_4597)"/>
<path d="M290.227 352.727L284.226 347.393" stroke="#0A1F37" stroke-width="0.385593" stroke-miterlimit="10"/>
<path d="M289.23 354.796L283.228 349.462" stroke="#0A1F37" stroke-width="0.385593" stroke-miterlimit="10"/>
<path d="M288.474 357.077L282.473 351.743" stroke="#0A1F37" stroke-width="0.385593" stroke-miterlimit="10"/>
<path d="M313.756 247.641C313.756 247.641 344.563 259.85 344.622 259.872C346.713 260.679 348.188 258.632 349.2 257.128C350.778 254.78 351.929 252.109 352.494 249.336C352.913 247.304 353.742 243.804 351.218 242.821L320.352 230.59" fill="#0A1F37"/>
<path d="M349.339 242.064C349.339 242.064 349.215 251.822 342.714 259.101L349.339 242.064Z" fill="#0A1F37"/>
<path d="M349.339 242.064C349.339 242.064 349.215 251.822 342.714 259.101" stroke="#0A1F37" stroke-width="0.385593" stroke-miterlimit="10"/>
<path d="M344.615 259.864C346.706 260.672 348.181 258.625 349.194 257.121C350.771 254.773 351.923 252.102 352.488 249.329C352.906 247.296 353.735 243.797 351.211 242.814" fill="#0A1F37"/>
<path d="M344.615 259.864C346.706 260.672 348.181 258.625 349.194 257.121C350.771 254.773 351.923 252.102 352.488 249.329C352.906 247.296 353.735 243.797 351.211 242.814" stroke="#0A1F37" stroke-width="0.385593" stroke-miterlimit="10"/>
<path d="M275.407 210.457C272.436 214.536 273.617 220.457 278.034 223.671L312.429 247.016C316.853 250.23 322.84 249.533 325.812 245.446C328.783 241.367 327.602 235.446 323.185 232.233L288.79 208.887C284.366 205.673 278.379 206.37 275.407 210.457Z" fill="#0A1F37"/>
<path d="M295.252 269.328L249.191 259.496C249.191 259.496 253.366 241.338 253.616 240.237C256.675 226.928 259.617 212.775 269.991 202.775C275.09 197.86 282.765 194.507 289.588 197.749C294.056 199.87 297.24 206.51 299.031 210.846C301.217 216.165 302.325 221.917 302.494 227.662C302.699 234.881 301.503 242.064 299.603 249.005C299.155 250.626 294.871 269.24 295.252 269.328Z" fill="url(#paint2_linear_300_4597)"/>
<mask id="mask6_300_4597" style="mask-type:luminance" maskUnits="userSpaceOnUse" x="249" y="196" width="54" height="74">
<path d="M295.253 269.328L249.193 259.496C249.193 259.496 253.367 241.338 253.617 240.237C256.676 226.928 259.618 212.775 269.992 202.775C275.092 197.86 282.766 194.507 289.589 197.749C294.057 199.87 297.242 206.51 299.032 210.846C301.218 216.165 302.326 221.917 302.495 227.662C302.7 234.881 301.504 242.064 299.604 249.005C299.157 250.626 294.872 269.24 295.253 269.328Z" fill="white"/>
</mask>
<g mask="url(#mask6_300_4597)">
<path d="M278.238 224.404L301.914 257.288L307.219 245.057L302.516 242.049L302.567 232.959L278.238 224.404Z" fill="#0A1F37"/>
</g>
<path d="M358.584 261.243C360.967 261.243 362.898 259.311 362.898 256.929C362.898 254.546 360.967 252.615 358.584 252.615C356.202 252.615 354.27 254.546 354.27 256.929C354.27 259.311 356.202 261.243 358.584 261.243Z" fill="white" stroke="#0A1F37" stroke-width="0.448363" stroke-miterlimit="10"/>
<path d="M358.76 258.909C359.753 258.909 360.558 258.104 360.558 257.112C360.558 256.119 359.753 255.314 358.76 255.314C357.767 255.314 356.963 256.119 356.963 257.112C356.963 258.104 357.767 258.909 358.76 258.909Z" fill="#0A1F37"/>
<path d="M313.756 250.914C313.756 250.914 344.563 263.122 344.622 263.144C346.713 263.952 348.188 261.905 349.2 260.4C350.778 258.053 351.93 255.382 352.494 252.609C352.913 250.576 353.742 247.077 351.218 246.094L320.352 233.863" fill="url(#paint3_linear_300_4597)"/>
<path d="M349.339 245.337C349.339 245.337 349.215 255.095 342.714 262.374L349.339 245.337Z" fill="url(#paint4_linear_300_4597)"/>
<path d="M349.339 245.337C349.339 245.337 349.215 255.095 342.714 262.374" stroke="#0A1F37" stroke-width="0.385593" stroke-miterlimit="10"/>
<path d="M344.615 263.137C346.706 263.944 348.181 261.897 349.194 260.393C350.771 258.046 351.923 255.375 352.488 252.602C352.906 250.569 353.735 247.07 351.211 246.087" fill="url(#paint5_linear_300_4597)"/>
<path d="M344.615 263.137C346.706 263.944 348.181 261.897 349.194 260.393C350.771 258.046 351.923 255.375 352.488 252.602C352.906 250.569 353.735 247.07 351.211 246.087" stroke="#0A1F37" stroke-width="0.385593" stroke-miterlimit="10"/>
<path d="M275.407 213.729C272.436 217.809 273.617 223.729 278.034 226.943L312.429 250.289C316.853 253.502 322.84 252.805 325.811 248.719C328.783 244.639 327.601 238.719 323.185 235.505L288.79 212.159C284.365 208.946 278.378 209.643 275.407 213.729Z" fill="url(#paint6_linear_300_4597)"/>
<path d="M301.423 169.613C300.616 169.041 299.772 168.527 298.811 168.19C297.858 167.859 297.77 168.703 297.674 169.532C297.476 171.322 297.564 173.142 297.19 174.91C296.816 176.671 295.869 178.446 294.226 179.187C293.69 179.43 293.103 179.554 292.575 179.811C292.282 179.958 291.364 180.464 291.284 180.802C290.55 181.286 289.706 181.565 288.965 181.99C288.048 182.518 288.334 184.044 287.322 184.309C285.121 184.881 284.079 179.4 284.167 178.131C284.167 173.876 285.209 169.628 285.876 165.453C285.979 164.837 286.097 164.169 286.551 163.736C287.19 163.134 289.56 163.685 289.09 162.415C288.899 161.895 288.224 161.638 288.114 161.095C287.968 160.346 288.951 159.928 289.714 159.855C292.399 159.613 295.15 160.104 297.593 161.256C297.249 159.877 298.276 158.395 299.626 157.94C300.976 157.485 302.494 157.867 303.705 158.63C304.916 159.393 305.855 160.486 306.786 161.572C306.838 160.075 308.327 158.864 309.824 158.886C311.321 158.908 312.685 159.958 313.338 161.308C313.991 162.658 314.013 164.242 313.69 165.702C313.067 168.549 309.773 173.721 306.295 172.621C304.402 172.027 302.986 170.713 301.423 169.613Z" fill="#0A1F37"/>
<path d="M303.933 172.554C306.831 172.958 309.883 171.175 310.962 168.453C311.241 167.749 311.395 166.964 311.241 166.223C310.91 164.645 309.025 163.625 307.499 164.139C306.831 164.366 306.229 164.865 305.995 165.526C305.76 166.186 305.936 167.015 306.501 167.44C307.066 167.866 307.983 167.771 308.372 167.184" stroke="white" stroke-width="0.170378" stroke-miterlimit="10"/>
<path d="M291.123 171.645C291.944 171.572 292.883 171.755 293.573 172.203C294.204 172.607 294.608 173.215 294.784 173.942C294.938 174.587 295.011 176.634 294.453 177.089C295.341 176.363 295.407 175.064 295.657 173.949C295.972 172.526 296.192 172.188 295.671 170.78C295.194 169.488 294.718 168.204 294.233 166.913C295.246 166.612 296.31 167.053 297.271 167.485C300.565 168.967 303.837 170.516 307.073 172.115C308.225 172.687 309.113 173.164 308.951 174.499C308.775 175.967 308.313 177.383 307.931 178.799C307.873 179.019 307.814 179.232 307.814 179.459C307.814 179.753 307.909 180.031 308.005 180.303C308.467 181.668 308.848 183.062 309.135 184.478C309.149 184.566 309.171 184.661 309.156 184.749C309.105 185.043 308.746 185.16 308.452 185.123C308.159 185.087 307.88 184.954 307.579 184.977C306.897 185.028 306.126 188.748 305.84 189.489C305.341 190.787 304.887 192.24 303.463 192.768C302.766 193.025 302.003 193.054 301.262 192.996C300.132 192.915 299.024 192.658 297.975 192.233C297.696 192.123 297.41 191.998 297.109 192.013C296.743 192.042 296.427 192.284 296.17 192.541C295.4 193.297 295.143 193.979 294.879 194.962C294.82 195.167 292.957 204.573 293.118 204.669C293.008 204.603 280.653 196.943 280.653 196.943L284.541 180.604L290.594 177.06C290.594 177.06 287.513 173.37 291.123 171.631V171.645Z" fill="#ED7770"/>
<path d="M306.611 174.617L303.415 174.195C302.976 174.137 302.573 174.446 302.515 174.886L302.514 174.894C302.456 175.333 302.765 175.735 303.204 175.793L306.4 176.215C306.839 176.273 307.242 175.964 307.3 175.525L307.301 175.516C307.359 175.077 307.05 174.675 306.611 174.617Z" fill="#0A1F37"/>
<path d="M305.239 178.769C305.727 178.769 306.123 178.373 306.123 177.885C306.123 177.397 305.727 177.001 305.239 177.001C304.751 177.001 304.355 177.397 304.355 177.885C304.355 178.373 304.751 178.769 305.239 178.769Z" fill="#0A1F37"/>
<path d="M298.687 192.504C298.687 192.504 292.48 189.73 291.379 185.247C291.379 185.247 290.763 195.783 293.83 200.325C293.83 200.325 294.696 191.682 298.687 192.511V192.504Z" fill="#0A1F37"/>
<path d="M306.369 179.173L303.859 179.782" stroke="#0A1F37" stroke-width="0.349723" stroke-miterlimit="10"/>
<path d="M293.639 176.715C293.72 176.04 293.602 175.335 293.294 174.726C293.089 174.323 292.803 173.949 292.414 173.714C292.025 173.479 291.541 173.384 291.115 173.531C291.078 173.545 291.027 173.56 290.998 173.531C290.968 173.501 291.049 173.457 291.049 173.494" stroke="#0A1F37" stroke-width="0.19728" stroke-miterlimit="10"/>
</g>
<defs>
<linearGradient id="paint0_linear_300_4597" x1="379.062" y1="263.76" x2="379.062" y2="250.825" gradientUnits="userSpaceOnUse">
<stop offset="0.16" stop-color="#EA0029"/>
<stop offset="0.42" stop-color="#F32735"/>
<stop offset="0.68" stop-color="#FF4713"/>
<stop offset="1" stop-color="#FF791F"/>
</linearGradient>
<linearGradient id="paint1_linear_300_4597" x1="277.356" y1="368.507" x2="277.356" y2="334.332" gradientUnits="userSpaceOnUse">
<stop offset="0.16" stop-color="#EA0029"/>
<stop offset="0.42" stop-color="#F32735"/>
<stop offset="0.68" stop-color="#FF4713"/>
<stop offset="1" stop-color="#FF791F"/>
</linearGradient>
<linearGradient id="paint2_linear_300_4597" x1="275.857" y1="269.328" x2="275.857" y2="196.466" gradientUnits="userSpaceOnUse">
<stop offset="0.16" stop-color="#EA0029"/>
<stop offset="0.42" stop-color="#F32735"/>
<stop offset="0.68" stop-color="#FF4713"/>
<stop offset="1" stop-color="#FF791F"/>
</linearGradient>
<linearGradient id="paint3_linear_300_4597" x1="359.273" y1="265.727" x2="322.455" y2="244.864" gradientUnits="userSpaceOnUse">
<stop stop-color="#FF791F"/>
<stop offset="0.201926" stop-color="#F32735"/>
<stop offset="0.495662" stop-color="#FF4713"/>
<stop offset="0.693743" stop-color="#EA0029"/>
</linearGradient>
<linearGradient id="paint4_linear_300_4597" x1="350.405" y1="263.762" x2="342.406" y2="262.437" gradientUnits="userSpaceOnUse">
<stop stop-color="#FF791F"/>
<stop offset="0.201926" stop-color="#F32735"/>
<stop offset="0.495662" stop-color="#FF4713"/>
<stop offset="0.693743" stop-color="#EA0029"/>
</linearGradient>
<linearGradient id="paint5_linear_300_4597" x1="354.302" y1="264.724" x2="344.373" y2="262.677" gradientUnits="userSpaceOnUse">
<stop stop-color="#FF791F"/>
<stop offset="0.201926" stop-color="#F32735"/>
<stop offset="0.495662" stop-color="#FF4713"/>
<stop offset="0.693743" stop-color="#EA0029"/>
</linearGradient>
<linearGradient id="paint6_linear_300_4597" x1="300.612" y1="252.307" x2="300.612" y2="210.141" gradientUnits="userSpaceOnUse">
<stop offset="0.16" stop-color="#EA0029"/>
<stop offset="0.42" stop-color="#F32735"/>
<stop offset="0.68" stop-color="#FF4713"/>
<stop offset="1" stop-color="#FF791F"/>
</linearGradient>
</defs>
</svg>
