<svg width="34" height="34" viewBox="0 0 34 34" fill="none" xmlns="http://www.w3.org/2000/svg">
<rect x="1" y="1" width="32" height="32" rx="5.33333" stroke="white" stroke-width="1.33333"/>
<g clip-path="url(#clip0_186_1604)">
<path d="M17 14.3023C16.2707 14.3023 15.5712 14.592 15.0555 15.1077C14.5398 15.6235 14.25 16.3229 14.25 17.0523C14.25 17.7816 14.5398 18.4811 15.0555 18.9968C15.5712 19.5126 16.2707 19.8023 17 19.8023C17.7294 19.8023 18.4289 19.5126 18.9446 18.9968C19.4603 18.4811 19.75 17.7816 19.75 17.0523C19.75 16.3229 19.4603 15.6235 18.9446 15.1077C18.4289 14.592 17.7294 14.3023 17 14.3023ZM17 12.469C18.2156 12.469 19.3814 12.9518 20.2409 13.8114C21.1005 14.6709 21.5834 15.8367 21.5834 17.0523C21.5834 18.2679 21.1005 19.4337 20.2409 20.2932C19.3814 21.1527 18.2156 21.6356 17 21.6356C15.7845 21.6356 14.6187 21.1527 13.7591 20.2932C12.8996 19.4337 12.4167 18.2679 12.4167 17.0523C12.4167 15.8367 12.8996 14.6709 13.7591 13.8114C14.6187 12.9518 15.7845 12.469 17 12.469ZM22.9584 12.2398C22.9584 12.5437 22.8377 12.8351 22.6228 13.05C22.4079 13.2649 22.1164 13.3856 21.8125 13.3856C21.5086 13.3856 21.2172 13.2649 21.0023 13.05C20.7874 12.8351 20.6667 12.5437 20.6667 12.2398C20.6667 11.9359 20.7874 11.6444 21.0023 11.4296C21.2172 11.2147 21.5086 11.094 21.8125 11.094C22.1164 11.094 22.4079 11.2147 22.6228 11.4296C22.8377 11.6444 22.9584 11.9359 22.9584 12.2398ZM17 9.71895C14.7322 9.71895 14.3619 9.72537 13.3068 9.77212C12.5881 9.80604 12.106 9.90229 11.6586 10.0765C11.2608 10.2305 10.9739 10.4147 10.6686 10.7209C10.3817 10.9981 10.1611 11.3365 10.0233 11.7109C9.84912 12.16 9.75287 12.6413 9.71987 13.359C9.67221 14.371 9.66671 14.7249 9.66671 17.0523C9.66671 19.3201 9.67312 19.6905 9.71987 20.7455C9.75379 21.4633 9.85004 21.9464 10.0233 22.3928C10.1791 22.7915 10.3625 23.0785 10.6668 23.3828C10.9757 23.6908 11.2626 23.875 11.6568 24.0272C12.1096 24.2023 12.5918 24.2995 13.3068 24.3325C14.3188 24.3801 14.6726 24.3856 17 24.3856C19.2679 24.3856 19.6382 24.3792 20.6933 24.3325C21.4101 24.2985 21.8932 24.2023 22.3405 24.029C22.7375 23.8741 23.0262 23.6899 23.3305 23.3855C23.6395 23.0766 23.8237 22.7897 23.9759 22.3955C24.15 21.9436 24.2472 21.4605 24.2802 20.7455C24.3279 19.7335 24.3334 19.3797 24.3334 17.0523C24.3334 14.7845 24.327 14.4141 24.2802 13.359C24.2463 12.6422 24.15 12.1582 23.9759 11.7109C23.8377 11.3369 23.6175 10.9986 23.3315 10.7209C23.0544 10.4338 22.7159 10.2132 22.3415 10.0755C21.8923 9.90137 21.4101 9.80512 20.6933 9.77212C19.6813 9.72445 19.3275 9.71895 17 9.71895ZM17 7.88562C19.4906 7.88562 19.8014 7.89479 20.7785 7.94062C21.7548 7.98645 22.4194 8.13954 23.0042 8.36687C23.6092 8.5997 24.1189 8.91504 24.6285 9.42379C25.0947 9.88202 25.4553 10.4363 25.6855 11.0481C25.9119 11.632 26.0659 12.2975 26.1117 13.2738C26.1548 14.251 26.1667 14.5617 26.1667 17.0523C26.1667 19.5429 26.1575 19.8536 26.1117 20.8308C26.0659 21.807 25.9119 22.4716 25.6855 23.0565C25.456 23.6686 25.0952 24.223 24.6285 24.6808C24.1702 25.1467 23.6159 25.5074 23.0042 25.7377C22.4203 25.9641 21.7548 26.1181 20.7785 26.164C19.8014 26.207 19.4906 26.219 17 26.219C14.5095 26.219 14.1987 26.2098 13.2215 26.164C12.2453 26.1181 11.5807 25.9641 10.9959 25.7377C10.3838 25.5081 9.82944 25.1473 9.37154 24.6808C8.90533 24.2226 8.54464 23.6683 8.31462 23.0565C8.08729 22.4725 7.93421 21.807 7.88837 20.8308C7.84529 19.8536 7.83337 19.5429 7.83337 17.0523C7.83337 14.5617 7.84254 14.251 7.88837 13.2738C7.93421 12.2966 8.08729 11.633 8.31462 11.0481C8.54401 10.436 8.90478 9.8815 9.37154 9.42379C9.82957 8.95742 10.3839 8.59671 10.9959 8.36687C11.5807 8.13954 12.2444 7.98645 13.2215 7.94062C14.1987 7.89754 14.5095 7.88562 17 7.88562Z" fill="white"/>
</g>
<defs>
<clipPath id="clip0_186_1604">
<rect width="22" height="22" fill="white" transform="translate(6 6.05237)"/>
</clipPath>
</defs>
</svg>
