<svg width="34" height="34" viewBox="0 0 34 34" fill="none" xmlns="http://www.w3.org/2000/svg">
<rect x="1" y="1" width="32" height="32" rx="5.33333" stroke="white" stroke-width="1.33333"/>
<g clip-path="url(#clip0_186_1610)">
<path d="M12.3617 10.6356C12.3615 11.1219 12.1681 11.5881 11.8241 11.9317C11.4801 12.2754 11.0137 12.4683 10.5275 12.4681C10.0413 12.4678 9.57504 12.2744 9.23139 11.9304C8.88775 11.5865 8.69483 11.12 8.69507 10.6338C8.69531 10.1476 8.8887 9.68136 9.23269 9.33771C9.57668 8.99407 10.0431 8.80115 10.5293 8.80139C11.0155 8.80163 11.4818 8.99502 11.8254 9.33901C12.1691 9.683 12.362 10.1494 12.3617 10.6356ZM12.4167 13.8256H8.75007V25.3023H12.4167V13.8256ZM18.2101 13.8256H14.5617V25.3023H18.1734V19.2798C18.1734 15.9248 22.5459 15.6131 22.5459 19.2798V25.3023H26.1667V18.0331C26.1667 12.3773 19.6951 12.5881 18.1734 15.3656L18.2101 13.8256Z" fill="white"/>
</g>
<defs>
<clipPath id="clip0_186_1610">
<rect width="22" height="22" fill="white" transform="translate(6 6)"/>
</clipPath>
</defs>
</svg>
