<svg width="33" height="32" viewBox="0 0 33 32" fill="none" xmlns="http://www.w3.org/2000/svg">
<g id="team-line 1" clip-path="url(#clip0_2_843)">
<g id="Group">
<path id="Vector" d="M16.5003 14.6667C18.2684 14.6667 19.9641 15.3691 21.2144 16.6194C22.4646 17.8696 23.167 19.5653 23.167 21.3334V29.3334H20.5003V21.3334C20.5004 20.3131 20.1106 19.3314 19.4106 18.5891C18.7107 17.8467 17.7535 17.3999 16.735 17.3401L16.5003 17.3334C15.48 17.3334 14.4983 17.7232 13.756 18.4231C13.0136 19.1231 12.5668 20.0802 12.507 21.0987L12.5003 21.3334V29.3334H9.83366V21.3334C9.83366 19.5653 10.536 17.8696 11.7863 16.6194C13.0365 15.3691 14.7322 14.6667 16.5003 14.6667ZM7.83366 18.6667C8.20566 18.6667 8.56699 18.7107 8.91366 18.7921C8.68569 19.4708 8.55069 20.1772 8.51232 20.8921L8.50033 21.3334V21.4481C8.34706 21.3932 8.18765 21.3574 8.02566 21.3414L7.83366 21.3334C7.33648 21.3334 6.85714 21.5186 6.4891 21.8529C6.12106 22.1872 5.89072 22.6465 5.84299 23.1414L5.83366 23.3334V29.3334H3.16699V23.3334C3.16699 22.0957 3.65866 20.9088 4.53383 20.0336C5.409 19.1584 6.59598 18.6667 7.83366 18.6667ZM25.167 18.6667C26.4047 18.6667 27.5917 19.1584 28.4668 20.0336C29.342 20.9088 29.8337 22.0957 29.8337 23.3334V29.3334H27.167V23.3334C27.167 22.8362 26.9818 22.3569 26.6475 21.9889C26.3132 21.6208 25.8539 21.3905 25.359 21.3427L25.167 21.3334C24.9337 21.3334 24.7097 21.3734 24.5003 21.4467V21.3334C24.5003 20.4454 24.3563 19.5921 24.0883 18.7947C24.4337 18.7107 24.795 18.6667 25.167 18.6667ZM7.83366 10.6667C8.71771 10.6667 9.56556 11.0179 10.1907 11.6431C10.8158 12.2682 11.167 13.116 11.167 14.0001C11.167 14.8841 10.8158 15.732 10.1907 16.3571C9.56556 16.9822 8.71771 17.3334 7.83366 17.3334C6.9496 17.3334 6.10176 16.9822 5.47664 16.3571C4.85151 15.732 4.50033 14.8841 4.50033 14.0001C4.50033 13.116 4.85151 12.2682 5.47664 11.6431C6.10176 11.0179 6.9496 10.6667 7.83366 10.6667ZM25.167 10.6667C26.051 10.6667 26.8989 11.0179 27.524 11.6431C28.1491 12.2682 28.5003 13.116 28.5003 14.0001C28.5003 14.8841 28.1491 15.732 27.524 16.3571C26.8989 16.9822 26.051 17.3334 25.167 17.3334C24.2829 17.3334 23.4351 16.9822 22.81 16.3571C22.1848 15.732 21.8337 14.8841 21.8337 14.0001C21.8337 13.116 22.1848 12.2682 22.81 11.6431C23.4351 11.0179 24.2829 10.6667 25.167 10.6667ZM7.83366 13.3334C7.65685 13.3334 7.48728 13.4037 7.36225 13.5287C7.23723 13.6537 7.16699 13.8233 7.16699 14.0001C7.16699 14.1769 7.23723 14.3465 7.36225 14.4715C7.48728 14.5965 7.65685 14.6667 7.83366 14.6667C8.01047 14.6667 8.18004 14.5965 8.30506 14.4715C8.43009 14.3465 8.50033 14.1769 8.50033 14.0001C8.50033 13.8233 8.43009 13.6537 8.30506 13.5287C8.18004 13.4037 8.01047 13.3334 7.83366 13.3334ZM25.167 13.3334C24.9902 13.3334 24.8206 13.4037 24.6956 13.5287C24.5706 13.6537 24.5003 13.8233 24.5003 14.0001C24.5003 14.1769 24.5706 14.3465 24.6956 14.4715C24.8206 14.5965 24.9902 14.6667 25.167 14.6667C25.3438 14.6667 25.5134 14.5965 25.6384 14.4715C25.7634 14.3465 25.8337 14.1769 25.8337 14.0001C25.8337 13.8233 25.7634 13.6537 25.6384 13.5287C25.5134 13.4037 25.3438 13.3334 25.167 13.3334ZM16.5003 2.66675C17.9148 2.66675 19.2714 3.22865 20.2716 4.22885C21.2718 5.22904 21.8337 6.58559 21.8337 8.00008C21.8337 9.41457 21.2718 10.7711 20.2716 11.7713C19.2714 12.7715 17.9148 13.3334 16.5003 13.3334C15.0858 13.3334 13.7293 12.7715 12.7291 11.7713C11.7289 10.7711 11.167 9.41457 11.167 8.00008C11.167 6.58559 11.7289 5.22904 12.7291 4.22885C13.7293 3.22865 15.0858 2.66675 16.5003 2.66675ZM16.5003 5.33341C15.7931 5.33341 15.1148 5.61437 14.6147 6.11446C14.1146 6.61456 13.8337 7.29284 13.8337 8.00008C13.8337 8.70732 14.1146 9.3856 14.6147 9.8857C15.1148 10.3858 15.7931 10.6667 16.5003 10.6667C17.2076 10.6667 17.8858 10.3858 18.3859 9.8857C18.886 9.3856 19.167 8.70732 19.167 8.00008C19.167 7.29284 18.886 6.61456 18.3859 6.11446C17.8858 5.61437 17.2076 5.33341 16.5003 5.33341Z" fill="url(#paint0_linear_2_843)"/>
</g>
</g>
<defs>
<linearGradient id="paint0_linear_2_843" x1="3.16699" y1="16.0002" x2="29.8337" y2="16.0002" gradientUnits="userSpaceOnUse">
<stop stop-color="#FF8300"/>
<stop offset="0.421875" stop-color="#FF4713"/>
<stop offset="0.885417" stop-color="#EA0029"/>
</linearGradient>
<clipPath id="clip0_2_843">
<rect width="32" height="32" fill="white" transform="translate(0.5)"/>
</clipPath>
</defs>
</svg>
