<svg width="34" height="34" viewBox="0 0 34 34" fill="none" xmlns="http://www.w3.org/2000/svg">
<g id="Group 41">
<rect id="Rectangle 8" x="1" y="1" width="32" height="32" rx="5.33333" stroke="white" stroke-width="1.33333"/>
<path id="Threads" d="M23.341 15.8393C23.2359 15.7889 23.1291 15.7404 23.0209 15.694C22.8325 12.2224 20.9356 10.2349 17.7504 10.2146C17.736 10.2145 17.7217 10.2145 17.7072 10.2145C15.8021 10.2145 14.2176 11.0277 13.2424 12.5075L14.9941 13.7091C15.7227 12.6038 16.866 12.3682 17.7081 12.3682C17.7178 12.3682 17.7276 12.3682 17.7372 12.3683C18.7859 12.3749 19.5773 12.6799 20.0895 13.2745C20.4623 13.7074 20.7116 14.3057 20.835 15.0607C19.9052 14.9026 18.8996 14.854 17.8246 14.9157C14.7963 15.0901 12.8494 16.8563 12.9802 19.3104C13.0465 20.5553 13.6667 21.6263 14.7264 22.3259C15.6223 22.9173 16.7762 23.2065 17.9755 23.141C19.5593 23.0542 20.8017 22.4499 21.6685 21.345C22.3268 20.506 22.7431 19.4186 22.927 18.0485C23.6817 18.504 24.2411 19.1035 24.55 19.824C25.0754 21.049 25.106 23.0618 23.4636 24.7028C22.0246 26.1404 20.2948 26.7623 17.6807 26.7815C14.7809 26.7601 12.5879 25.8301 11.162 24.0175C9.82682 22.3201 9.13678 19.8685 9.11103 16.7307C9.13678 13.5928 9.82682 11.1412 11.162 9.44389C12.5879 7.63128 14.7809 6.70133 17.6807 6.67978C20.6015 6.7015 22.8328 7.63592 24.3132 9.45728C25.0391 10.3504 25.5864 11.4737 25.9472 12.7833L28 12.2356C27.5627 10.6236 26.8745 9.23451 25.9381 8.08248C24.0401 5.74743 21.2643 4.55093 17.6878 4.52612H17.6735C14.1043 4.55085 11.3596 5.75189 9.51571 8.09587C7.8749 10.1817 7.02853 13.084 7.00009 16.7221L7 16.7307L7.00009 16.7393C7.02853 20.3773 7.8749 23.2797 9.51571 25.3656C11.3596 27.7095 14.1043 28.9106 17.6735 28.9353H17.6878C20.8611 28.9133 23.0978 28.0825 24.9405 26.2415C27.3512 23.833 27.2787 20.814 26.4841 18.9607C25.914 17.6317 24.8272 16.5522 23.341 15.8393ZM17.8621 20.9905C16.5349 21.0652 15.156 20.4695 15.088 19.1935C15.0376 18.2474 15.7613 17.1917 17.9436 17.0659C18.1935 17.0515 18.4387 17.0445 18.6796 17.0445C19.4723 17.0445 20.2139 17.1215 20.888 17.2688C20.6366 20.4092 19.1616 20.9192 17.8621 20.9905Z" fill="white"/>
</g>
</svg>
