<svg width="33" height="32" viewBox="0 0 33 32" fill="none" xmlns="http://www.w3.org/2000/svg">
<g id="money-dollar-circle-line 1" clip-path="url(#clip0_2_837)">
<g id="Group">
<path id="Vector" d="M16.5003 29.3334C9.13633 29.3334 3.16699 23.3641 3.16699 16.0001C3.16699 8.63608 9.13633 2.66675 16.5003 2.66675C23.8643 2.66675 29.8337 8.63608 29.8337 16.0001C29.8337 23.3641 23.8643 29.3334 16.5003 29.3334ZM16.5003 26.6667C19.3293 26.6667 22.0424 25.5429 24.0428 23.5426C26.0432 21.5422 27.167 18.8291 27.167 16.0001C27.167 13.1711 26.0432 10.458 24.0428 8.45761C22.0424 6.45722 19.3293 5.33341 16.5003 5.33341C13.6713 5.33341 10.9582 6.45722 8.95785 8.45761C6.95747 10.458 5.83366 13.1711 5.83366 16.0001C5.83366 18.8291 6.95747 21.5422 8.95785 23.5426C10.9582 25.5429 13.6713 26.6667 16.5003 26.6667ZM11.8337 18.6667H19.167C19.3438 18.6667 19.5134 18.5965 19.6384 18.4715C19.7634 18.3465 19.8337 18.1769 19.8337 18.0001C19.8337 17.8233 19.7634 17.6537 19.6384 17.5287C19.5134 17.4037 19.3438 17.3334 19.167 17.3334H13.8337C12.9496 17.3334 12.1018 16.9822 11.4766 16.3571C10.8515 15.732 10.5003 14.8841 10.5003 14.0001C10.5003 13.116 10.8515 12.2682 11.4766 11.6431C12.1018 11.0179 12.9496 10.6667 13.8337 10.6667H15.167V8.00008H17.8337V10.6667H21.167V13.3334H13.8337C13.6568 13.3334 13.4873 13.4037 13.3623 13.5287C13.2372 13.6537 13.167 13.8233 13.167 14.0001C13.167 14.1769 13.2372 14.3465 13.3623 14.4715C13.4873 14.5965 13.6568 14.6667 13.8337 14.6667H19.167C20.051 14.6667 20.8989 15.0179 21.524 15.6431C22.1491 16.2682 22.5003 17.116 22.5003 18.0001C22.5003 18.8841 22.1491 19.732 21.524 20.3571C20.8989 20.9822 20.051 21.3334 19.167 21.3334H17.8337V24.0001H15.167V21.3334H11.8337V18.6667Z" fill="url(#paint0_linear_2_837)"/>
</g>
</g>
<defs>
<linearGradient id="paint0_linear_2_837" x1="3.16699" y1="16.0002" x2="29.8337" y2="16.0002" gradientUnits="userSpaceOnUse">
<stop stop-color="#FF8300"/>
<stop offset="0.421875" stop-color="#FF4713"/>
<stop offset="0.885417" stop-color="#EA0029"/>
</linearGradient>
<clipPath id="clip0_2_837">
<rect width="32" height="32" fill="white" transform="translate(0.5)"/>
</clipPath>
</defs>
</svg>
