<svg width="24" height="25" viewBox="0 0 24 25" fill="none" xmlns="http://www.w3.org/2000/svg">
<g id="grid / 24 / Outline">
<path id="Vector" d="M10 13.5H3C2.73478 13.5 2.48043 13.6054 2.29289 13.7929C2.10536 13.9804 2 14.2348 2 14.5V21.5C2 21.7652 2.10536 22.0196 2.29289 22.2071C2.48043 22.3946 2.73478 22.5 3 22.5H10C10.2652 22.5 10.5196 22.3946 10.7071 22.2071C10.8946 22.0196 11 21.7652 11 21.5V14.5C11 14.2348 10.8946 13.9804 10.7071 13.7929C10.5196 13.6054 10.2652 13.5 10 13.5ZM9 20.5H4V15.5H9V20.5ZM21 2.5H14C13.7348 2.5 13.4804 2.60536 13.2929 2.79289C13.1054 2.98043 13 3.23478 13 3.5V10.5C13 10.7652 13.1054 11.0196 13.2929 11.2071C13.4804 11.3946 13.7348 11.5 14 11.5H21C21.2652 11.5 21.5196 11.3946 21.7071 11.2071C21.8946 11.0196 22 10.7652 22 10.5V3.5C22 3.23478 21.8946 2.98043 21.7071 2.79289C21.5196 2.60536 21.2652 2.5 21 2.5V2.5ZM20 9.5H15V4.5H20V9.5ZM21 13.5H14C13.7348 13.5 13.4804 13.6054 13.2929 13.7929C13.1054 13.9804 13 14.2348 13 14.5V21.5C13 21.7652 13.1054 22.0196 13.2929 22.2071C13.4804 22.3946 13.7348 22.5 14 22.5H21C21.2652 22.5 21.5196 22.3946 21.7071 22.2071C21.8946 22.0196 22 21.7652 22 21.5V14.5C22 14.2348 21.8946 13.9804 21.7071 13.7929C21.5196 13.6054 21.2652 13.5 21 13.5ZM20 20.5H15V15.5H20V20.5ZM10 2.5H3C2.73478 2.5 2.48043 2.60536 2.29289 2.79289C2.10536 2.98043 2 3.23478 2 3.5V10.5C2 10.7652 2.10536 11.0196 2.29289 11.2071C2.48043 11.3946 2.73478 11.5 3 11.5H10C10.2652 11.5 10.5196 11.3946 10.7071 11.2071C10.8946 11.0196 11 10.7652 11 10.5V3.5C11 3.23478 10.8946 2.98043 10.7071 2.79289C10.5196 2.60536 10.2652 2.5 10 2.5V2.5ZM9 9.5H4V4.5H9V9.5Z" fill="url(#paint0_linear_343_7414)"/>
</g>
<defs>
<linearGradient id="paint0_linear_343_7414" x1="2" y1="12.5001" x2="22" y2="12.5001" gradientUnits="userSpaceOnUse">
<stop stop-color="#FF8300"/>
<stop offset="0.421875" stop-color="#FF4713"/>
<stop offset="0.885417" stop-color="#EA0029"/>
</linearGradient>
</defs>
</svg>
