<svg width="34" height="34" viewBox="0 0 34 34" fill="none" xmlns="http://www.w3.org/2000/svg">
<g id="Group 40">
<rect id="Rectangle 8" x="1" y="1" width="32" height="32" rx="5.33333" stroke="white" stroke-width="1.33333"/>
<path id="Vector" d="M28 10.185C27.2143 10.5218 26.3163 10.7462 25.4184 10.8585C26.3163 10.2973 27.102 9.39931 27.4388 8.38911C26.5408 8.95033 25.6429 9.28707 24.5204 9.51156C23.7347 8.6136 22.5 8.05237 21.2653 8.05237C18.7959 8.05237 16.7755 10.0728 16.7755 12.5422C16.7755 12.8789 16.7755 13.2156 16.8878 13.5524C13.1837 13.3279 9.81632 11.532 7.57142 8.83808C7.23469 9.51155 7.0102 10.2973 7.0102 11.083C7.0102 12.6544 7.79592 14.0014 9.03061 14.7871C8.2449 14.7871 7.57142 14.5626 7.0102 14.2258C7.0102 16.3585 8.58162 18.2667 10.602 18.6034C10.2653 18.7156 9.81633 18.7156 9.36735 18.7156C9.03061 18.7156 8.80612 18.7156 8.46939 18.6034C9.03061 20.3993 10.7143 21.7462 12.7347 21.7462C11.1633 22.9809 9.2551 23.6544 7.12245 23.6544C6.78571 23.6544 6.44898 23.6544 6 23.5422C8.02041 24.7769 10.3775 25.5626 12.9592 25.5626C21.2653 25.5626 25.7551 18.7156 25.7551 12.7667V12.2054C26.6531 11.8687 27.4388 11.083 28 10.185Z" fill="white"/>
</g>
</svg>
